<svg width="1200" height="720" viewBox="0 0 1200 720" fill="none" xmlns="http://www.w3.org/2000/svg">
  <rect width="1200" height="720" rx="40" fill="url(#bg)"/>
  <circle cx="1016" cy="138" r="162" fill="#C084FC" fill-opacity="0.16"/>
  <circle cx="212" cy="590" r="168" fill="#22D3EE" fill-opacity="0.16"/>
  <rect x="78" y="82" width="228" height="54" rx="27" fill="white" fill-opacity="0.12" stroke="white" stroke-opacity="0.18"/>
  <text x="192" y="117" fill="white" font-family="Arial, Helvetica, sans-serif" font-size="22" letter-spacing="6" text-anchor="middle">SNEAKERS</text>
  <text x="78" y="210" fill="white" font-family="Arial, Helvetica, sans-serif" font-size="64" font-weight="700">Sneaker collection</text>
  <text x="78" y="270" fill="#E2E8F0" font-family="Arial, Helvetica, sans-serif" font-size="30">Low tops, runners, and standout lace-up icons.</text>
  <g opacity="0.98">
    <ellipse cx="838" cy="594" rx="230" ry="28" fill="#020617" fill-opacity="0.28"/>
    <path d="M602 482C666 385 762 334 882 326L1038 316C1073 313 1104 337 1112 372L1124 425C1130 452 1114 479 1088 486L940 517C893 526 845 528 798 520L646 495C614 490 592 478 602 482Z" fill="#F8FAFC"/>
    <path d="M626 490C684 404 773 360 882 356L1016 350C1048 348 1076 371 1082 402L1091 445C1095 465 1084 483 1064 487L925 514C881 522 837 523 793 517L671 499C648 496 621 490 626 490Z" fill="#0F172A"/>
    <path d="M740 400L1010 390" stroke="#F8FAFC" stroke-width="10" stroke-linecap="round"/>
    <path d="M724 424L992 414" stroke="#F8FAFC" stroke-width="10" stroke-linecap="round"/>
    <path d="M708 448L972 438" stroke="#F8FAFC" stroke-width="10" stroke-linecap="round"/>
    <path d="M804 380L925 470" stroke="#22D3EE" stroke-width="14" stroke-linecap="round"/>
    <path d="M834 368L962 462" stroke="#A78BFA" stroke-width="12" stroke-linecap="round"/>
    <path d="M604 503L1087 478" stroke="#E2E8F0" stroke-opacity="0.62" stroke-width="12" stroke-linecap="round"/>
    <path d="M604 520L1065 497" stroke="#38BDF8" stroke-width="10" stroke-linecap="round"/>
  </g>
  <defs>
    <linearGradient id="bg" x1="0" y1="0" x2="1200" y2="720" gradientUnits="userSpaceOnUse">
      <stop stop-color="#0F172A"/>
      <stop offset="0.52" stop-color="#312E81"/>
      <stop offset="1" stop-color="#0E7490"/>
    </linearGradient>
  </defs>
</svg>
