<svg width="1200" height="720" viewBox="0 0 1200 720" fill="none" xmlns="http://www.w3.org/2000/svg">
  <rect width="1200" height="720" rx="40" fill="url(#bg)"/>
  <circle cx="1030" cy="128" r="150" fill="#FB7185" fill-opacity="0.16"/>
  <circle cx="222" cy="596" r="170" fill="#FDBA74" fill-opacity="0.16"/>
  <rect x="78" y="82" width="216" height="54" rx="27" fill="white" fill-opacity="0.12" stroke="white" stroke-opacity="0.18"/>
  <text x="186" y="117" fill="white" font-family="Arial, Helvetica, sans-serif" font-size="22" letter-spacing="6" text-anchor="middle">WOMEN</text>
  <text x="78" y="210" fill="white" font-family="Arial, Helvetica, sans-serif" font-size="64" font-weight="700">Womens shoes</text>
  <text x="78" y="270" fill="#F8FAFC" font-family="Arial, Helvetica, sans-serif" font-size="30">Soft lines, brighter accents, and a clean street shape.</text>
  <g opacity="0.98">
    <ellipse cx="830" cy="594" rx="226" ry="28" fill="#020617" fill-opacity="0.28"/>
    <path d="M618 480C678 392 768 342 882 336L1014 328C1047 326 1077 347 1085 379L1098 433C1104 460 1089 486 1063 493L930 521C887 530 843 531 800 524L658 503C624 498 604 484 618 480Z" fill="#FFF1F2"/>
    <path d="M640 489C694 406 778 364 881 360L994 356C1025 354 1053 376 1060 406L1070 449C1074 468 1063 486 1044 490L922 515C882 523 841 524 801 518L678 501C656 498 635 491 640 489Z" fill="#111827"/>
    <path d="M734 400L986 391" stroke="#FDE68A" stroke-width="10" stroke-linecap="round"/>
    <path d="M720 423L968 414" stroke="#FDE68A" stroke-width="10" stroke-linecap="round"/>
    <path d="M708 446L950 438" stroke="#FDE68A" stroke-width="10" stroke-linecap="round"/>
    <path d="M802 382L930 471" stroke="#F9A8D4" stroke-width="14" stroke-linecap="round"/>
    <path d="M836 370L970 462" stroke="#FB7185" stroke-width="12" stroke-linecap="round"/>
    <path d="M620 503L1062 480" stroke="#F3F4F6" stroke-opacity="0.62" stroke-width="12" stroke-linecap="round"/>
    <path d="M620 520L1044 498" stroke="#FB7185" stroke-width="10" stroke-linecap="round"/>
  </g>
  <defs>
    <linearGradient id="bg" x1="70" y1="42" x2="1120" y2="704" gradientUnits="userSpaceOnUse">
      <stop stop-color="#1F2937"/>
      <stop offset="0.5" stop-color="#9D174D"/>
      <stop offset="1" stop-color="#F97316"/>
    </linearGradient>
  </defs>
</svg>
