<svg width="1200" height="720" viewBox="0 0 1200 720" fill="none" xmlns="http://www.w3.org/2000/svg">
  <rect width="1200" height="720" rx="48" fill="url(#bg)"/>
  <circle cx="1035" cy="125" r="140" fill="#FB7185" fill-opacity="0.16"/>
  <circle cx="255" cy="145" r="175" fill="#38BDF8" fill-opacity="0.15"/>
  <rect x="94" y="102" width="232" height="68" rx="34" fill="white" fill-opacity="0.12" stroke="white" stroke-opacity="0.18"/>
  <text x="210" y="146" fill="white" font-family="Arial, Helvetica, sans-serif" font-size="26" letter-spacing="8" text-anchor="middle">TRAINING</text>
  <text x="94" y="300" fill="white" font-family="Arial, Helvetica, sans-serif" font-size="84" font-weight="700">Strength starts here</text>
  <text x="94" y="372" fill="#E2E8F0" font-family="Arial, Helvetica, sans-serif" font-size="38">Training-ready pairs built for daily reps.</text>
  <rect x="94" y="458" width="168" height="70" rx="35" fill="white"/>
  <text x="178" y="502" fill="#0F172A" font-family="Arial, Helvetica, sans-serif" font-size="28" font-weight="700" text-anchor="middle">SHOP</text>
  <g opacity="0.98">
    <ellipse cx="850" cy="585" rx="220" ry="30" fill="#020617" fill-opacity="0.35"/>
    <path d="M665 483C715 392 803 342 913 334L1033 326C1064 324 1092 346 1099 377L1112 437C1118 463 1102 489 1077 495L960 523C918 533 873 534 830 526L704 503C671 497 650 477 665 483Z" fill="#F8FAFC"/>
    <path d="M688 492C732 412 811 368 909 362L1006 356C1036 354 1062 375 1068 404L1077 451C1080 470 1068 488 1049 492L942 516C904 525 865 525 827 519L720 501C699 497 684 491 688 492Z" fill="#111827"/>
    <path d="M712 475C758 410 829 376 920 372L1010 368C1027 367 1041 379 1045 395L1056 440C1058 454 1049 467 1035 471L947 492C907 501 866 502 826 495L737 480C721 477 710 472 712 475Z" fill="#1E293B"/>
    <path d="M768 414L998 404" stroke="#F8FAFC" stroke-width="10" stroke-linecap="round"/>
    <path d="M753 435L980 425" stroke="#F8FAFC" stroke-width="10" stroke-linecap="round"/>
    <path d="M740 456L958 447" stroke="#F8FAFC" stroke-width="10" stroke-linecap="round"/>
    <path d="M840 382L908 492" stroke="#FB7185" stroke-width="12" stroke-linecap="round"/>
    <path d="M884 378L946 485" stroke="#FDBA74" stroke-width="12" stroke-linecap="round"/>
    <path d="M665 483L1097 461" stroke="#E2E8F0" stroke-opacity="0.55" stroke-width="12" stroke-linecap="round"/>
    <path d="M665 500L1076 479" stroke="#38BDF8" stroke-width="10" stroke-linecap="round"/>
    <rect x="1016" y="344" width="34" height="78" rx="16" fill="#E11D48"/>
  </g>
  <defs>
    <linearGradient id="bg" x1="68" y1="40" x2="1118" y2="720" gradientUnits="userSpaceOnUse">
      <stop stop-color="#020617"/>
      <stop offset="0.5" stop-color="#1D4ED8"/>
      <stop offset="1" stop-color="#111827"/>
    </linearGradient>
  </defs>
</svg>
